PathFileType	4	(X/Y/Z)	D:\TRACE\spotREDO_2-26-24\spot_Both_Motion_1_9-platform.trc
DataRate	CameraRate	NumFrames	NumMarkers	Units	OrigDataRate	OrigDataStartFrame	OrigNumFrames
100.00	100.00	      48	5	mm	100.00	5251	      7000
Frame#	Time	Left_Front			Right_Front			Left_Aft			Right_Aft			Post			
		X1	Y1	Z1	X2	Y2	Z2	X3	Y3	Z3	X4	Y4	Z4	X5	Y5	Z5	

5251	52.500	-670.65320	22.35080	-568.24799	744.47363	27.64227	-483.81653	-741.81110	-22.63593	649.30597	828.50446	-15.19219	653.43091	38.45770	666.46869	-947.59558	
5252	52.510	-671.46716	22.29444	-568.35864	743.41211	27.63067	-483.77310	-742.56281	-22.69098	649.40417	827.73895	-15.21060	653.48193	37.56336	666.60376	-947.45361	
5253	52.520	-672.27924	22.19103	-568.33820	742.77789	27.56062	-483.61942	-743.47571	-22.79333	649.47009	826.86383	-15.26696	653.67792	37.01192	666.74774	-947.17285	
5254	52.530	-673.06628	22.30228	-568.39331	742.01453	27.50057	-483.71466	-744.19727	-22.84966	649.64954	826.04755	-15.18239	653.75659	35.94564	666.59888	-946.99133	
5255	52.540	-673.92194	22.21771	-568.49658	741.05695	27.35388	-483.76004	-745.02582	-23.07961	649.57098	825.14746	-15.11322	653.76874	35.08155	666.61365	-946.83453	
5256	52.550	-674.75104	22.13136	-568.43958	740.10413	27.41923	-483.78503	-745.70959	-23.10153	649.56018	824.48792	-15.37387	653.68378	34.38875	666.70135	-946.90802	
5257	52.560	-675.63831	22.02544	-568.45593	739.35028	27.45255	-483.87622	-746.57025	-22.94006	649.58594	823.54199	-15.38366	653.49524	33.78551	666.63763	-947.21313	
5258	52.570	-676.29358	21.99040	-568.40350	738.49176	27.41681	-483.77667	-747.40973	-22.82907	649.47900	822.65454	-15.30752	653.25598	33.15951	666.58771	-947.21259	
5259	52.580	-677.22003	21.90369	-568.42242	737.95416	27.38593	-483.67776	-748.24756	-22.81706	649.34375	821.83673	-15.18065	653.34338	32.01726	666.44794	-947.72742	
5260	52.590	-678.02966	21.75052	-568.40515	736.82233	27.48971	-483.89609	-749.22052	-22.64529	649.43848	821.22723	-15.15277	653.43372	30.89682	666.26581	-948.00165	
5261	52.600	-678.95288	21.78650	-568.40900	735.72607	27.37188	-483.91473	-750.03204	-22.62307	649.38983	820.14136	-15.10078	653.36841	29.89515	666.16815	-948.10992	
5262	52.610	-679.80585	21.71296	-568.35687	735.03705	27.20062	-483.85208	-750.96643	-22.74467	649.41083	819.25702	-15.22610	653.19244	29.27977	666.12927	-948.25592	
5263	52.620	-680.50623	21.63897	-568.38184	734.14026	27.33389	-484.07169	-751.77863	-22.72599	649.50854	818.38141	-15.15712	653.15393	28.44260	666.23389	-948.24713	
5264	52.630	-681.68640	21.88628	-568.10992	733.19257	27.26259	-483.90622	-752.76605	-22.55985	649.55402	817.70807	-15.18164	653.13086	27.73137	666.21753	-948.37268	
5265	52.640	-682.59601	21.63082	-567.86499	732.52258	27.22250	-483.84940	-753.61340	-22.50735	649.54901	816.56323	-14.98924	653.37030	26.64402	666.04449	-948.18469	
5266	52.650	-683.48944	21.86020	-568.61230	731.89331	26.96757	-483.61298	-754.54211	-22.56838	649.36487	815.74023	-15.07999	653.35339	25.65902	666.00281	-947.97180	
5267	52.660	-684.07892	21.71386	-568.59265	730.40656	27.14207	-483.96344	-755.43610	-22.57347	649.29700	814.88086	-14.96059	653.34656	24.59195	665.79150	-947.90875	
5268	52.670	-685.25763	21.51287	-568.59076	729.58173	26.97050	-484.01248	-756.27576	-22.47883	649.31116	813.99689	-15.14459	653.23053	23.91612	665.81940	-947.68750	
5269	52.680	-685.99799	21.50709	-568.69495	728.72369	26.91784	-483.90308	-757.19153	-22.43624	649.30414	813.18878	-14.57470	653.56274	22.90754	665.84485	-947.61963	
5270	52.690	-687.32135	21.63423	-568.67200	727.71570	26.98198	-484.02338	-758.09808	-22.34002	649.25610	812.03400	-14.76664	653.45886	22.11197	665.66895	-947.69470	
5271	52.700	-688.00970	21.42893	-568.65009	726.87787	26.85105	-484.05222	-759.22681	-22.08762	649.31464	811.00696	-14.79696	653.48175	21.26745	665.46692	-947.80334	
5272	52.710	-689.00891	21.38386	-568.73480	725.95282	26.76474	-483.94992	-760.18652	-22.03345	649.41003	809.86176	-14.57294	653.36218	20.33184	665.34259	-948.00342	
5273	52.720	-689.67346	21.41480	-568.75482	724.92743	26.62758	-484.26196	-760.98846	-22.09945	649.26135	809.25659	-14.45898	653.29095	19.15124	665.17969	-948.44641	
5274	52.730	-690.90240	21.02586	-568.69263	723.82245	26.80415	-484.23227	-762.06458	-21.65429	649.20013	808.04163	-14.05291	653.14832	18.06924	664.66284	-949.03528	
5275	52.740	-691.69250	20.75081	-568.68756	723.07233	26.48903	-484.32428	-762.74933	-21.41196	649.34546	807.24451	-13.76473	653.22583	17.59841	664.26831	-949.20233	
5276	52.750	-692.83057	20.79104	-568.69958	722.41730	26.18165	-484.32001	-763.82922	-21.67592	649.00653	806.53851	-14.00723	653.24622	16.59500	664.28491	-949.82495	
5277	52.760	-693.67273	20.59830	-568.68512	720.88562	26.09216	-484.41013	-764.87152	-21.17367	649.02521	805.23419	-14.13150	653.23706	15.53594	664.16357	-950.24005	
5278	52.770	-694.74579	20.49759	-568.78821	720.18842	25.99019	-484.28751	-765.99567	-21.47037	648.84833	804.26178	-14.23477	653.14960	14.61803	663.86224	-950.53656	
5279	52.780	-695.83093	20.41524	-568.77124	719.25787	25.98766	-484.23462	-766.75403	-21.31973	649.06464	803.26270	-13.99954	653.23743	13.59697	663.88098	-950.41400	
5280	52.790	-696.67920	20.33009	-568.83911	718.12134	26.15713	-484.36591	-767.82568	-21.08274	648.99030	802.49536	-13.73581	652.94287	12.40226	664.03680	-950.26508	
5281	52.800	-697.57794	20.36599	-568.81012	717.39496	26.18058	-484.34525	-768.57733	-20.83621	649.16144	801.48279	-13.61621	653.05243	11.53471	663.89166	-950.23663	
5282	52.810	-698.52759	20.02225	-568.99823	716.35101	26.27831	-484.47610	-769.84595	-21.27395	649.06360	800.61279	-13.98496	653.03027	10.92327	663.49310	-949.95270	
5283	52.820	-699.55273	20.09168	-569.00745	715.37195	25.71328	-484.56937	-770.52350	-21.09753	649.11951	799.61749	-13.99318	652.85675	9.71368	663.35541	-949.72498	
5284	52.830	-700.59503	20.08590	-569.00415	714.49414	25.44840	-484.32080	-771.65002	-20.85435	648.92236	798.58484	-13.78554	652.82764	8.90121	663.31354	-949.50677	
5285	52.840	-701.38446	20.01253	-569.23956	713.56360	25.54311	-484.37341	-772.58545	-20.62084	648.99561	798.01483	-13.24986	652.93750	8.23503	663.21649	-949.41522	
5286	52.850	-702.32318	19.92483	-569.09058	712.61823	25.45004	-484.46329	-773.31543	-20.49519	649.01367	796.98718	-12.84183	652.96564	6.66482	662.97144	-949.75128	
5287	52.860	-703.33221	19.77268	-569.18433	711.54187	25.58632	-484.55695	-774.50848	-20.13554	648.84906	795.84961	-13.29886	652.62433	5.70688	662.50659	-950.06073	
5288	52.870	-704.31256	19.50436	-569.15332	710.52112	25.18259	-484.73486	-775.60162	-20.11295	648.85675	794.79999	-13.26510	652.56616	4.97903	662.05255	-950.35077	
5289	52.880	-705.62854	19.28781	-569.24884	709.59009	24.97320	-484.88351	-776.56769	-20.41588	648.82898	793.89294	-13.25439	652.09875	3.88747	661.79248	-951.02289	
5290	52.890	-706.11011	19.28298	-569.21875	708.37799	25.02793	-485.02121	-777.43311	-19.80294	648.78412	792.92468	-12.87186	652.18878	3.02584	661.68085	-951.67847	
5291	52.900	-707.20435	19.12462	-569.34857	707.86725	24.90124	-484.67877	-778.38983	-19.61255	648.87250	791.96063	-12.33678	652.61725	2.23616	661.40448	-952.23083	
5292	52.910	-708.20697	18.92923	-569.31110	706.69781	24.74672	-484.69711	-779.44464	-19.22404	648.73529	791.01251	-12.10333	652.38678	1.32430	661.27759	-952.74164	
5293	52.920	-709.25928	18.82443	-569.46893	705.71252	24.33063	-484.92584	-780.54187	-19.47369	648.53467	790.01172	-12.10280	652.50311	0.09071	660.75916	-953.26556	
5294	52.930	-710.16180	18.48547	-569.60938	704.74414	24.15034	-484.95026	-781.34497	-19.25723	648.72076	788.76563	-12.15921	652.39771	-1.02441	660.50049	-953.24225	
5295	52.940	-711.18091	18.38598	-569.57751	703.85150	23.96539	-484.95108	-782.06281	-19.22447	648.66827	787.95642	-11.90910	652.39679	-1.87311	660.37646	-953.16071	
5296	52.950	-711.91357	18.35156	-569.56897	702.72650	24.10613	-485.16333	-783.01794	-19.09851	648.55334	787.01532	-11.68462	652.45679	-2.57937	660.14569	-953.18768	
5297	52.960	-713.03680	18.29789	-569.53589	701.74835	24.01965	-485.09277	-784.15918	-18.67523	648.67645	786.26563	-11.67889	652.39465	-3.57171	659.78540	-952.87781	
5298	52.970	-713.96039	18.14946	-569.57941	701.21002	23.70617	-485.04587	-785.08484	-18.49180	648.66956	785.20551	-11.59002	652.40692	-4.52262	659.55280	-952.72119	
